<?xml version="1.0" standalone="no"?>
<!DOCTYPE svg PUBLIC "-//W3C//DTD SVG 20010904//EN"
 "http://www.w3.org/TR/2001/REC-SVG-20010904/DTD/svg10.dtd">
<svg version="1.0" xmlns="http://www.w3.org/2000/svg"
 width="170.000000pt" height="56.000000pt" viewBox="130 150 400.000000 180.000000"
 preserveAspectRatio="xMidYMid meet">

<g transform="translate(0.000000,500.000000) scale(0.100000,-0.100000)"
fill="#000000" stroke="none">
<path d="M1213 2881 c180 -32 330 -60 333 -63 7 -8 -287 -448 -299 -448 -6 0
-19 -7 -29 -17 -17 -15 -19 -15 -36 0 -10 10 -22 17 -27 17 -5 0 -17 -7 -27
-17 -17 -15 -19 -15 -36 0 -23 21 -41 21 -63 1 -17 -15 -20 -15 -43 0 -16 10
-46 16 -78 16 l-53 -1 70 -30 c50 -21 79 -29 101 -25 26 5 32 2 43 -20 8 -19
16 -24 29 -19 41 17 47 16 59 -16 9 -23 9 -37 1 -53 -10 -21 -10 -21 9 -1 31
31 636 698 652 718 13 16 -11 17 -460 16 l-474 -1 328 -57z"/>
<path d="M980 2768 c3 -3 37 -23 76 -46 l72 -40 63 12 64 12 -120 28 c-66 15
-129 30 -140 33 -11 3 -18 3 -15 1z"/>
<path d="M2720 2734 c-6 -14 -10 -71 -10 -127 0 -56 -4 -108 -9 -116 -6 -9
-42 -17 -102 -22 -51 -5 -93 -8 -94 -6 -2 1 -5 18 -9 38 l-6 37 57 6 c96 11
123 18 123 29 0 6 -30 8 -90 3 l-90 -7 0 54 c0 64 4 67 113 67 50 0 68 3 65
13 -3 8 -36 13 -106 15 l-101 3 -3 -135 -3 -134 -114 64 c-129 71 -128 59 -5
105 27 10 59 25 69 33 23 17 14 43 -20 56 -33 13 -145 13 -165 0 -9 -5 -19 -5
-26 1 -9 7 -15 5 -22 -8 -9 -16 -24 -18 -142 -15 -102 2 -131 -1 -128 -10 3
-7 27 -15 54 -18 l49 -5 -3 -85 c-2 -47 -5 -98 -8 -113 -5 -26 -3 -28 18 -25
22 3 23 7 29 105 3 57 7 104 10 106 2 3 32 7 66 10 l62 5 3 -106 c3 -92 5
-107 21 -110 14 -3 17 5 17 53 l0 56 30 -16 c17 -9 65 -38 107 -66 42 -27 83
-47 92 -45 9 3 68 10 131 17 83 8 115 8 118 0 2 -6 12 -11 23 -11 16 0 19 7
19 50 l0 50 37 -15 c21 -9 58 -29 84 -45 46 -30 107 -42 93 -18 -4 6 3 4 17
-5 34 -24 65 -21 126 13 l53 30 0 -46 c0 -38 3 -45 18 -42 14 3 17 17 20 95 2
79 5 94 22 103 18 10 19 6 22 -72 2 -69 6 -83 20 -86 14 -3 17 6 20 53 l3 56
55 -34 c30 -18 79 -48 107 -67 41 -25 56 -30 66 -21 8 6 16 8 20 5 7 -7 37 49
37 70 0 20 14 27 77 42 l54 12 30 -61 c17 -34 32 -63 34 -65 1 -1 13 2 27 7
24 9 25 14 32 117 4 59 10 114 15 121 5 10 23 -18 55 -86 25 -55 51 -103 56
-106 5 -3 19 14 31 37 29 59 73 128 80 128 4 0 12 -45 19 -100 11 -90 29 -135
46 -117 9 9 -23 242 -36 267 -19 35 -42 19 -86 -58 -22 -39 -43 -75 -47 -78
-3 -3 -24 30 -46 73 -21 44 -46 85 -55 92 -23 19 -44 6 -50 -31 -17 -113 -13
-105 -47 -100 -27 4 -35 13 -58 66 -29 64 -56 95 -70 80 -4 -5 -27 -63 -51
-129 -66 -185 -46 -174 -179 -99 -129 71 -128 59 -5 105 27 10 59 25 69 33 23
17 14 43 -20 56 -34 13 -141 13 -165 0 -13 -7 -21 -7 -25 0 -13 21 -23 -1 -18
-39 l5 -39 -91 -12 c-50 -7 -99 -19 -109 -26 -16 -12 -15 -13 8 -13 14 0 44 4
68 8 l43 8 -3 -46 c-3 -43 -5 -47 -48 -68 -55 -29 -84 -29 -111 -2 -17 17 -20
30 -16 66 7 67 51 123 115 148 78 30 64 48 -20 25 -72 -20 -151 -152 -133
-223 6 -24 4 -23 -87 22 -51 25 -95 47 -97 49 -10 6 28 33 104 75 44 24 81 51
83 61 5 26 -18 19 -105 -34 l-83 -49 0 69 c0 72 -13 91 -30 44z m-356 -40 c9
-3 16 -10 16 -16 0 -12 -100 -56 -137 -60 -24 -3 -28 1 -31 23 -2 14 3 31 10
37 19 15 115 26 142 16z m1050 0 c9 -3 16 -10 16 -16 0 -12 -100 -56 -137 -60
-24 -3 -28 1 -31 23 -2 14 3 31 10 37 19 15 115 26 142 16z m255 -63 c6 -19 8
-38 4 -42 -13 -12 -83 -28 -83 -19 0 4 10 34 22 65 23 62 35 61 57 -4z m107
-83 c-3 -13 -6 -34 -7 -48 -1 -25 -1 -24 -14 5 -21 44 -19 65 6 65 17 0 20 -4
15 -22z"/>
</g>
</svg>
